<svg width="49" height="49" fill="none" xmlns="http://www.w3.org/2000/svg"><circle cx="24.5" cy="24.5" r="23.5" stroke="#323232" stroke-width="2"/><path d="M32.06 19.72a9.07 9.07 0 00.35-7.17.75.75 0 00-.26-.36.8.8 0 00-1.17.22c-1 1.72-3.12 4.48-4.69 4.61h-.07a13 13 0 00-2.17-.23c-.74.02-1.47.1-2.19.23h-.05c-1.56-.12-3.73-2.88-4.72-4.6a.77.77 0 00-.32-.32.8.8 0 00-.88.07c-.13.1-.21.23-.26.38a9 9 0 00.3 7.16c-1.35.16-3.07.59-3.7 1.65a1.61 1.61 0 000 1.66 1.97 1.97 0 001.82.94 5.68 5.68 0 001.89-.36c0 .41.03.82.1 1.22.35 1.34.8 2.65 1.37 3.92l.4 1c-.26.6-.46 1.23-.6 1.87a3.24 3.24 0 00.87 2.5C19.2 35.37 21.2 36 24.02 36c2.83 0 4.83-.63 5.95-1.89a3.3 3.3 0 00.87-2.5c-.14-.64-.34-1.26-.59-1.87l.4-1A24.46 24.46 0 0032 24.82c.08-.4.11-.8.1-1.22.59.22 1.2.35 1.83.37.37.02.73-.05 1.06-.22.32-.17.59-.42.77-.73a1.61 1.61 0 000-1.66c-.62-1.03-2.34-1.48-3.7-1.64zm-.74-5.02c.28 1.58 0 3.2-.78 4.61a5.62 5.62 0 00-2.11-1.6c1.12-.85 2.1-1.86 2.89-3zm-14.6 0a12.72 12.72 0 002.89 3.02c-.55.23-1.05.56-1.48.95-.22.21-.43.43-.63.66a6.96 6.96 0 01-.78-4.63zm-3.08 7.6c-.07-.12-.04-.16 0-.2.18-.29 1.09-.75 2.82-.92l-.23.66c-1.02.51-2.38.83-2.59.46zm16.83 2.26a24.98 24.98 0 01-1.26 3.63c-.2.47-.39.94-.54 1.42l-.05.23.09.21c.24.58.44 1.17.6 1.77a1.75 1.75 0 01-.51 1.3c-.56.63-1.84 1.37-4.77 1.37-2.93 0-4.2-.75-4.77-1.37a1.82 1.82 0 01-.5-1.3c.15-.6.36-1.2.6-1.77l.09-.21-.05-.23c-.15-.49-.33-.96-.54-1.42-.52-1.19-.95-2.41-1.28-3.66a5.25 5.25 0 011.66-4.8c1.18-1.15 3.85-1.4 4.78-1.41.92 0 3.54.25 4.79 1.43a5.33 5.33 0 011.66 4.78v.03zm3.9-2.26c-.2.36-1.56.05-2.53-.45a7.53 7.53 0 00-.22-.67c1.71.17 2.61.63 2.78.93.04.03.06.07-.01.19h-.02z" fill="#323232"/></svg>