<svg width="49" height="49" fill="none" xmlns="http://www.w3.org/2000/svg"><circle cx="24.5" cy="24.5" r="23.5" stroke="#323232" stroke-width="2"/><path d="M27.59 15.12c0-1.1-.42-2.14-1.17-2.91a3.94 3.94 0 00-5.66 0 4.18 4.18 0 00-1.17 2.9v12a5.98 5.98 0 00.94 8.92 5.57 5.57 0 007.57-1.22 5.92 5.92 0 00.96-5.45 5.87 5.87 0 00-1.47-2.42V15.12zm.14 16.02a4.3 4.3 0 01-1.89 3.6 4 4 0 01-5.51-1.14 4.27 4.27 0 01.85-5.73V15.12c0-.66.25-1.29.7-1.76a2.37 2.37 0 013.41 0c.46.47.71 1.1.71 1.76v12.6a4.13 4.13 0 011.73 3.42z" fill="#323232"/><path d="M24.46 28.58v-13.4a.83.83 0 00-.24-.58.78.78 0 00-1.12 0 .83.83 0 00-.23.58v13.4c-.53.2-.98.57-1.27 1.07a2.52 2.52 0 00.52 3.13 2.34 2.34 0 003.08 0 2.52 2.52 0 00.52-3.12 2.4 2.4 0 00-1.26-1.08zM34 14.2h-4.77v1.64H34V14.2zM34 17.48h-4.77v1.63H34v-1.63zM34 20.75h-4.77v1.64H34v-1.64zM34 24.03h-4.77v1.64H34v-1.64z" fill="#323232"/></svg>