<svg width="154" height="64" fill="none" xmlns="http://www.w3.org/2000/svg"><path d="M59.34 43.15a3.8 3.8 0 00-2.15.38s-3 2.58-17.86-.39c-10.92-2.19-16.6-1.96-16.6-1.96s1.84-12.84 1.34-16.44a1.04 1.04 0 00-.34-.68.98.98 0 00-.71-.25c-1.1 0-1.75.43-1.75 1.02.1 2.43 0 4.86-.25 7.28a6.14 6.14 0 01-2.42 3.09 5.88 5.88 0 01-3.76.93c-4.75-.33-5.75-3.85-6.17-6.24-.42-2.4-.66-9.08.59-11.82 0 0 7.16.26 11.67-3.68 4.5-3.95 4.22-7.36 2.09-8.82s-7.13-1.2-10.96 2.4a19.9 19.9 0 00-5.09 7.19s-5.63-1.24-4.34-7.28C4 1.58 12.4 2.32 12.4 2.32c1.75.34 1.83.5 2.41-.09.58-.6 1-2.13-1.75-2.23C10.31-.09 2.05 1.3.46 6.94-1.21 12.93 1.9 17.2 6.1 17.88c0 0-2.29 10.37.54 15.51a9.05 9.05 0 003.56 3.87c1.53.9 3.29 1.31 5.05 1.19 1.65 0 4.58-.95 5.4-2.32 0 0-.38 3.68-.71 5.02 0 0-6.95-.1-9.12 1.02-3.7 2-2.92 6.7-1.5 8.37 1.2 1.41 4.81 2.19 7.42.92 1.5-.74 2.79-1.85 3.76-3.23a10.37 10.37 0 001.8-4.68c4.22-.22 8.46.25 12.54 1.4C41 46.84 49.6 48.6 52.18 48.6c2.59 0 8.01-.76 8.34-2.97.18-1.46-.35-2.22-1.18-2.49zM15.87 8.82s3.29-2.57 4.86-.97a2.24 2.24 0 01.09 2.9c-.66.88-2.4 3.68-10.67 5.06 0 0 2.6-4.68 5.72-7zm.27 39.97s-4.53 2.54-5-.9a3.31 3.31 0 01.18-2.16 3.2 3.2 0 011.46-1.55c.79-.4 1.87-.9 6.59-.73a6.61 6.61 0 01-3.23 5.34z" fill="#FBFCFB"/><path d="M73.64 24.38v7.08a5.88 5.88 0 01-.86 2.6 5.7 5.7 0 01-1.18 1.5c-.53.48-.88-.58-1.08-1.02-1.39-2.99-.72-7-.18-10.13.25-1.5-2.71-1.1-2.94.23a31 31 0 00-.55 8.12 1.84 1.84 0 00-1.34.75c-.51 1.12-2 4.84-3.84 3.35-1.32-1.02-1.46-3.84-1.6-5.41a16.3 16.3 0 01.82-6.43c-.06.17 1.14-2.9 1.67-1.76a3.82 3.82 0 01-.6 3.22c-1.58 1.21.86 1.71 1.81.97 1.8-1.38 3-5.86-.07-6.4-3.47-.6-5.44 3-6.17 5.86a19.1 19.1 0 00-.5 5.01c-.48.87-2.1 3.64-3.05 4.11-1.12.6-1.1-.23-1.06-.77.04-.53.54-5.29.8-8.5a6.07 6.07 0 00-.5-3.74c-.42-.9-4-2.9-7.14.86A12.38 12.38 0 0043 31.07c-.21.43-.44.9-.71 1.4-1.5 2.82-3.4 4.01-4.07 2.05-.67-2.04-.93-4.2-.75-6.36a40.1 40.1 0 005.07-12.07c1.5-6.84 1.22-10.24.4-10.82-.8-.57-4.25-1.99-6.32 6.42a56.22 56.22 0 00-1.6 18.37c-.31.7-.71 1.54-1.22 2.5-1.5 2.82-3.38 4.02-4.07 2.05-.66-2.04-.9-4.2-.7-6.36a40.1 40.1 0 005.06-12.07c1.55-6.93 1.24-10.33.43-10.9-.81-.58-4.25-2-6.32 6.41-2.06 8.42-2.47 17.6-.5 23.76 0 0 1.08 3.47 3.1 3.21 1.68-.21 3.67-1.9 4.84-5.04.13.62.3 1.23.49 1.83 0 0 1.08 3.47 3.1 3.21 1.37-.17 3-1.35 4.15-3.51.7 1.88 2.24 3.43 4.21 3.08 2.67-.5 3.22-1.98 3.22-1.98s-.05 2.44 1.66 2.44c1.53 0 2.74-.91 3.94-3.24l.78-1.52c.35 2.2 1.24 4.17 3 4.96 3 1.33 5.63-1.2 7.17-3.71a4.45 4.45 0 002.46 2.69 3.66 3.66 0 003.78-.95v3.61c-.54-.03-1.09.12-1.55.43a12.02 12.02 0 00-3.45 4.85 12.32 12.32 0 00-.74 5.96 3.38 3.38 0 001.65 2.64 3.17 3.17 0 003.06.04c3.1-1.39 3.58-6.16 3.84-9.08.63-7.02.14-14.32.14-21.36 0-1.3-2.9-.69-2.9.37zm-43.36-11.5c.69-2.73 1.33-3.82 2-3.82.67 0 .93.73.46 3.09a61.38 61.38 0 01-4.1 13.1s.94-9.64 1.64-12.37zm8.42 0c.7-2.73 1.33-3.82 1.95-3.82.62 0 .95.73.47 3.09-.47 2.35-2 8.85-4.09 13.1 0 0 1-9.64 1.67-12.37zm12.87 12.8c-.08.6-.46 4.41-1 6.47-.54 2.05-.9 2.78-2.53 3.5-1.62.7-2.44-1.47-2.44-1.47-1.15-3.29.39-6.16 1.67-8.13 1.28-1.98 2.57-2.15 3.31-2.06a1.35 1.35 0 01.84.64 1.42 1.42 0 01.15 1.06zm22 18.5a19 19 0 01-1.59 8.02c-.7.14-1-.12-1.24-1.27a11.3 11.3 0 010-3.34 9.32 9.32 0 012.78-5.3c.05.66.05 1.28.04 1.89zM92.38 21.47a11.1 11.1 0 01-5.72-6.16c-1.28-3.92 2.93-6.82 6.28-6.65 3.35.18 5.15 3.72 5 6.9-.05 1.12-.75 3.64-2.1 2.33a6.61 6.61 0 01-1.56-3.73c-.2-1.24-3.1-.5-2.9.8.58 3.76 4.52 7.9 7.9 3.97a7.64 7.64 0 001.42-6.42 7.63 7.63 0 00-4.03-5.12 10 10 0 00-7.06-.14c-2.3.82-4.24 2.44-5.48 4.59-2.73 4.98 2.76 9.85 6.64 11.63 6.23 3.42 6.46 14.43-1.82 14.5a8.2 8.2 0 01-4.73-1.64 8.56 8.56 0 01-2.97-4.12c-.57-1.73-.28-7.76 2-8.22 1.81-.36 1.32-2.05-.45-1.73-3.71.74-5.08 5.66-4.72 9.1.58 5.48 5.58 8.55 10.64 8.51a9.42 9.42 0 006.18-2.09 9.87 9.87 0 003.46-5.66 9.82 9.82 0 00-1.12-6.43 9.43 9.43 0 00-4.86-4.22z" fill="#FBFCFB"/><path d="M110.98 37.8c-2.86-1.6-1.22-7.78-.8-10.15.29-1.53 1.56-3.9-.48-4.42-2.4-.6-5.24 1.74-7.29 3.97 0-2.58.18-5.14.55-7.69 3.17-1.62 5.7-4.3 7.19-7.59 1.3-2.67 1.94-8.22-2.47-6.6-4 1.44-5.37 6.17-6.62 9.96a31.6 31.6 0 00-1.1 4.49c-.4.17-.8.32-1.21.45-1.67.54-1.44 1.45.24.92l.8-.27c-.8 5.76-.25 11.8.26 17.46 0 .56 3 0 2.89-.8-.22-2.53-.41-5.05-.49-7.56.24-.07.46-.21.63-.4a22.87 22.87 0 014-4.04l.46-.35c.67-.54.8-.55.38 0-.15.98-.36 1.95-.62 2.91-.55 3.08-2.13 9.13 1.34 11.07.76.4 3.46-.76 2.34-1.36zm-6.5-24.77c.31-.91.72-1.82 1.1-2.7.47-1.11 1.73-4.9 2.64-3.08.73 1.45-.42 3.82-.93 5.2-.8 2.17-2.19 4.06-4 5.45.3-1.65.69-3.28 1.2-4.87z" fill="#FBFCFB"/><path d="M121.74 30.6c0-3.38-.37-7.72-4.3-8.08-4.32-.4-6.01 4.23-6.07 7.7 0 .12.02.24.08.35.07.1.16.18.27.23 0 3.24.76 7.46 4.51 7.39 4.19-.06 5.5-3.81 5.5-7.6zm-5 5.63c-2.45-1.03-2.23-5.36-2.07-7.44a.55.55 0 00-.24-.54c.3-2.06 1.08-5.14 2.86-3.61 1.42 1.25 1.45 4.26 1.52 6 .06 1.21-.09 6.35-2.07 5.59zM153.26 49.14c-1.12-2.96-3.58-4.1-6.3-4.23-.3-.75-.67-1.47-1.12-2.14-3.91-5.95-13.2-5.14-19.5-2.05 0-.94-.09-1.87-.13-2.8 1.25.1 2.51-.13 3.65-.67a7.37 7.37 0 002.87-2.42c1.67-2.46 1.43-6.81.77-9.56-.62-2.6-3.09-2.13-4.94-1.27-.68.33-1.3.77-1.86 1.3 0-.7.11-1.4.16-2.06.11-1.58-2.84-1.18-2.94.22-.46 6.36-.3 12.7-.44 19.04a15.12 15.12 0 00-4.12 5.56 15.5 15.5 0 00-1.26 6.86c0 2.34 1.94 4.11 4 2.45 2.9-2.28 3.78-6.81 4.18-10.27.16-1.55.22-3.1.16-4.66a13.76 13.76 0 0115.22-.1 7.1 7.1 0 012.27 2.77c-1.6.3-3.16.8-4.63 1.52-1.7.85-4.25 2.84-4.13 5.07-.02.7.2 1.4.61 1.95a3 3 0 001.68 1.13c.1.05.19.08.3.1 6.14 1.02 10.71-2.71 9.83-7.96 3 1.68 4.11 5.56 3.05 8.9-2.39 7.5-11.6 9.17-16.96 4.16-.58-.54-3.2.6-2.74 1.03 7.75 7.26 27.05.54 22.32-11.87zm-29.96-1.82c-.09 1.82-.47 3.6-1.14 5.28-.25.57-.52 1.11-.81 1.65 0 0-.26.06-.31-.74 0-2.88.8-5.7 2.34-8.1-.02.63-.04 1.27-.08 1.91zm3.13-18.35c.06-.05.1-.1.15-.17a14.4 14.4 0 011.9-2.58 7.93 7.93 0 011.81-1.56c.33.16.66 1.03.78 2.19.3 2.85.44 10.37-3.95 9.66-.34-.01-.68.05-1 .18 0-2.61.13-5.16.31-7.72zm13.1 24.4h-.07c-1.68-.42-1.5-2.06-1.28-3.17.5-2.6 3.57-4 6.12-4.11 1.29 3.7.3 8.12-4.78 7.27z" fill="#FBFCFB"/></svg>