<svg width="108" height="39" fill="none" xmlns="http://www.w3.org/2000/svg"><path d="M44.58 28.43c.19-.02.38-.05.55-.11v1.4a3.2 3.2 0 01-1.18.23c-.34.03-.68-.04-.98-.22-.3-.19-.54-.46-.68-.79a4.7 4.7 0 01-3.14 1.14c-1.52 0-2.92-.88-2.92-2.7 0-2.26 1.98-2.96 3.72-2.96.73.02 1.45.1 2.17.27v-.32c0-1.1-.76-1.87-2.2-1.87-1.03 0-2.05.24-2.99.68v-1.81a9.61 9.61 0 013.19-.58c2.36 0 3.8 1.18 3.8 3.86v3.16a.6.6 0 00.13.42.53.53 0 00.53.2zm-6.43-1.21c.03.37.2.73.47.97.27.25.63.37.98.34h.1a3.3 3.3 0 002.42-1.01V26c-.6-.14-1.2-.21-1.81-.23-1.05 0-2.16.36-2.16 1.47v-.02zM50.5 20.77c.9-.03 1.79.2 2.57.67v1.8a3.89 3.89 0 00-2.3-.73 2.65 2.65 0 00-2 .68 3.03 3.03 0 00-.32 4.1 2.7 2.7 0 002.32 1.03c.85 0 1.69-.24 2.43-.68v1.81c-.87.42-1.81.63-2.76.6a3.98 3.98 0 01-3.06-1.08 4.42 4.42 0 01-1.43-3.05v-.44a4.81 4.81 0 011.17-3.27 4.33 4.33 0 013.01-1.44h.37zM62.67 28.43c.18-.02.37-.05.55-.11v1.4a3.2 3.2 0 01-1.18.23c-.34.03-.69-.04-.99-.22-.3-.19-.53-.46-.68-.79a4.7 4.7 0 01-3.14 1.14c-1.51 0-2.91-.88-2.91-2.7 0-2.26 1.98-2.96 3.71-2.96.73.02 1.46.1 2.17.27v-.32c0-1.1-.76-1.87-2.19-1.87-1.03 0-2.05.24-3 .68v-1.81a9.61 9.61 0 013.2-.58c2.35 0 3.8 1.18 3.8 3.86v3.16a.6.6 0 00.12.42.53.53 0 00.54.2zm-6.44-1.21c.03.37.2.73.47.97.28.25.63.37.99.34h.1a3.3 3.3 0 002.41-1.01V26c-.6-.14-1.2-.21-1.8-.23-1.06 0-2.17.36-2.17 1.47v-.02zM72.97 16.96v12.87H71.3v-1.4c-.37.52-.86.94-1.4 1.22a3.7 3.7 0 01-1.79.4 4.3 4.3 0 01-2.92-1.46 4.81 4.81 0 010-6.37 4.3 4.3 0 012.92-1.45c.57-.02 1.13.1 1.65.34.52.25.98.6 1.35 1.07v-5.22H73h-.04zm-4.53 5.53c-.73 0-1.43.3-1.95.86-.52.54-.8 1.29-.8 2.06 0 .78.28 1.52.8 2.07a2.68 2.68 0 003.55.36 3 3 0 001.06-1.36v-2.15A3.04 3.04 0 0070.03 23a2.79 2.79 0 00-1.59-.5zM79 20.77c3.31 0 4.45 2.83 3.92 5.38h-6.27c.2 1.58 1.66 2.24 3.19 2.24.9 0 1.8-.22 2.63-.63v1.7a6.8 6.8 0 01-2.99.6c-2.55 0-4.75-1.54-4.75-4.65a4.6 4.6 0 011.07-3.19 4.1 4.1 0 012.88-1.45H79zm.08 1.63a2.16 2.16 0 00-1.65.57 2.4 2.4 0 00-.8 1.65v.06h4.62a2.2 2.2 0 00-.43-1.53 2 2 0 00-1.32-.75 1.46 1.46 0 00-.42 0zM84.8 21h1.65v1.1c.35-.4.78-.74 1.26-.97.48-.23 1-.36 1.52-.36.51-.04 1.03.07 1.48.32.46.25.85.63 1.12 1.09a4.16 4.16 0 012.91-1.41 2.92 2.92 0 012.34 1.02 3.3 3.3 0 01.82 2.52v5.52H96v-5.46c.04-.44-.08-.88-.35-1.23a1.57 1.57 0 00-1.07-.61h-.23c-.4.04-.78.16-1.13.36-.35.2-.65.48-.9.82v6.12h-1.9v-5.46c.04-.44-.08-.88-.35-1.23a1.57 1.57 0 00-1.07-.61h-.23c-.44.04-.86.18-1.25.41-.38.24-.7.56-.95.95v5.95H84.8V21zM106.1 21h1.9l-3.9 10.02c-.95 2.3-2.09 3.02-3.35 3.02a5.04 5.04 0 01-1.1-.15v-1.63c.28.08.56.13.85.13.95 0 1.58-.68 2.06-2.02l.18-.44-3.96-8.9h2.02l2.86 6.66 2.44-6.68zM38.7 1.52v5.04a3.8 3.8 0 012.7-1.2 3.08 3.08 0 012.34.85 3.42 3.42 0 011.09 2.37v5.82h-1.9V9.2a2.03 2.03 0 00-.38-1.43 1.84 1.84 0 00-1.23-.71h-.3c-.47.03-.92.17-1.33.43-.4.26-.74.61-.99 1.04v5.84h-1.9V1.52h1.9zM49.9 2.42v3.14h3.02V7.3H49.9v4.03c0 1.16.5 1.54 1.58 1.54.58 0 1.15-.12 1.69-.35v1.7c-.72.25-1.48.38-2.24.38a2.41 2.41 0 01-1.89-.55 2.66 2.66 0 01-.96-1.8 2.7 2.7 0 010-.56V7.27h-1.53V5.54h1.5V2.88l1.85-.46zM55.3 14.38V5.56h1.65v1.1a3.83 3.83 0 012.77-1.34c.52-.03 1.03.08 1.49.33.45.25.84.62 1.11 1.08a4.16 4.16 0 012.92-1.4 2.92 2.92 0 012.33 1.01 3.3 3.3 0 01.83 2.53v5.51h-1.9V8.93a1.78 1.78 0 00-.35-1.25 1.62 1.62 0 00-1.08-.62h-.22c-.4.04-.79.16-1.14.37-.35.21-.65.5-.9.84v6.11h-1.9V8.93a1.78 1.78 0 00-.35-1.26 1.61 1.61 0 00-1.1-.61h-.23c-.44.03-.87.18-1.25.41-.38.24-.7.56-.96.95v5.95H55.3v.01zM72.97 1.51h-1.85v12.86h1.85V1.51zM14.7 0h-.16L0 1.61v28.23L14.54 39l14.55-9.16V1.6L14.69 0zm12.48 28.68l-12.64 7.96L1.9 28.68V17.14l12.59 7.93v1.44l-8.64-5.44v1.39l8.67 5.51v1.47l-8.66-5.46v1.4l8.67 5.5 8.75-5.54v-5.99l3.9-2.47v11.8zm0-13.27l-3.47 2.16-1.6 1-7.61-4.79v1.4l6.5 4.1h-.06l-.14.08-.96.58-5.36-3.39v1.4l4.23 2.66-1 .71-3.2-2.02v1.4l2.1 1.3-2.13 1.37-12.52-7.89L14.5 7.5l12.68 7.91zm0-1.4l-12.7-7.96L1.9 14V3.42l12.65-1.4 12.64 1.4v10.6z" fill="#fff"/></svg>