<svg width="32" height="32" fill="none" xmlns="http://www.w3.org/2000/svg"><path d="M16.64 14.49c.33 0 .65-.06.95-.18.27-.1.5-.3.64-.56a2 2 0 00.15-.8c0-.24-.07-.48-.18-.7a1.05 1.05 0 00-.61-.51 3 3 0 00-1-.17h-2v3h.57c.59-.05 1.08-.06 1.48-.08zM18.12 17.08c-.37-.07-.74-.1-1.12-.08h-2.39v3.5h2.45c.42 0 .83-.09 1.21-.25.32-.11.6-.33.77-.62.15-.28.22-.59.22-.9.02-.35-.08-.7-.26-1a1.6 1.6 0 00-.88-.65z" fill="#fff" fill-opacity=".8"/><path d="M16 0a16 16 0 100 32 16 16 0 000-32zm6.6 20.53a3.7 3.7 0 01-1.12 1.33c-.55.41-1.17.71-1.83.88-.82.2-1.67.29-2.51.27H11V9h5.45c.83-.01 1.66.02 2.48.11.54.08 1.07.25 1.56.5.5.24.91.62 1.19 1.09.27.47.4 1 .39 1.55.01.64-.18 1.27-.54 1.8-.38.54-.92.95-1.53 1.2v.07a4 4 0 012.18 1.13c.55.62.84 1.43.8 2.26.02.63-.1 1.25-.38 1.82z" fill="#fff" fill-opacity=".8"/></svg>